<svg width="1434" height="410" viewBox="0 0 1434 410" fill="none" xmlns="http://www.w3.org/2000/svg">
<path d="M701.182 274.325C686.679 274.325 673.637 270.946 662.055 264.188C650.573 257.43 641.509 248.251 634.862 236.651C628.215 224.951 624.892 211.788 624.892 197.162C624.892 182.436 628.215 169.273 634.862 157.673C641.509 146.074 650.573 136.895 662.055 130.137C673.637 123.379 686.729 120 701.333 120C713.015 120 723.741 122.219 733.51 126.657C743.279 130.994 751.588 137.046 758.437 144.813L759.645 123.026H781.55V270.391C781.55 287.336 778.227 301.962 771.58 314.267C764.933 326.674 755.466 336.206 743.179 342.863C730.892 349.621 716.288 353 699.369 353C675.399 353 654.552 345.032 636.826 329.095L647.703 309.123C661.501 323.446 678.37 330.608 698.311 330.608C710.296 330.608 720.619 328.086 729.28 323.043C738.042 318.1 744.79 311.09 749.524 302.012C754.358 292.934 756.775 282.192 756.775 269.786V251.176C749.926 258.337 741.718 263.986 732.151 268.121C722.684 272.257 712.361 274.325 701.182 274.325ZM703.297 252.386C713.166 252.386 722.13 250.167 730.187 245.729C738.244 241.19 744.689 235.037 749.524 227.271C754.358 219.403 756.775 210.527 756.775 200.642V193.682C756.775 183.697 754.358 174.82 749.524 167.054C744.689 159.287 738.244 153.185 730.187 148.747C722.13 144.208 713.166 141.938 703.297 141.938C693.125 141.938 684.01 144.359 675.953 149.201C667.896 154.042 661.501 160.649 656.767 169.021C652.135 177.292 649.818 186.672 649.818 197.162C649.818 207.652 652.135 217.083 656.767 225.455C661.501 233.827 667.896 240.434 675.953 245.275C684.01 250.016 693.125 252.386 703.297 252.386Z" fill="#B1A3CC"/>
<path d="M1113.63 274.325H1088.85V189.9C1088.85 175.577 1084.78 164.129 1076.62 155.555C1068.46 146.982 1057.63 142.695 1044.14 142.695C1030.14 142.695 1018.76 147.335 1010 156.614C1001.34 165.793 997.005 177.897 997.005 192.926V274.325H972.229V123.026H993.832L994.739 147.536C1000.28 138.66 1007.58 131.852 1016.64 127.111C1025.71 122.37 1036.38 120 1048.67 120C1068.71 120 1084.52 126.052 1096.11 138.156C1107.79 150.26 1113.63 166.852 1113.63 187.933V274.325Z" fill="#B1A3CC"/>
<path d="M1267.51 252.538C1260.16 260.506 1251.44 266.659 1241.37 270.996C1231.3 275.232 1220.48 277.351 1208.89 277.351C1193.89 277.351 1180.39 273.921 1168.41 267.062C1156.52 260.203 1147.11 250.823 1140.16 238.921C1133.31 227.019 1129.88 213.603 1129.88 198.675C1129.88 183.646 1133.31 170.231 1140.16 158.43C1147.11 146.528 1156.52 137.147 1168.41 130.288C1180.39 123.429 1193.89 120 1208.89 120C1220.38 120 1231.15 122.118 1241.22 126.354C1251.29 130.591 1260.01 136.693 1267.36 144.662L1252.55 160.245C1247.22 154.597 1240.82 150.26 1233.37 147.234C1226.01 144.208 1218.21 142.695 1209.95 142.695C1199.38 142.695 1189.96 145.116 1181.7 149.957C1173.54 154.698 1167.1 161.254 1162.36 169.626C1157.73 177.998 1155.42 187.63 1155.42 198.524C1155.42 209.417 1157.73 219.101 1162.36 227.573C1167.1 236.046 1173.54 242.703 1181.7 247.545C1189.96 252.285 1199.38 254.656 1209.95 254.656C1218.21 254.656 1226.07 253.143 1233.52 250.117C1240.97 246.99 1247.32 242.653 1252.55 237.105L1267.51 252.538Z" fill="#B1A3CC"/>
<path d="M1339.36 349.974H1312.32L1344.04 273.114L1271.83 123.026H1299.17L1355.97 244.519L1406.13 123.026H1433.02L1339.36 349.974Z" fill="#B1A3CC"/>
<path d="M466.014 189.244L578.732 190.303C580.879 190.323 581.748 189.257 581.339 187.104C579.495 177.631 575.817 169.216 570.303 161.858C564.79 154.499 557.973 148.74 549.853 144.581C541.732 140.422 532.949 138.298 523.502 138.209C515.343 138.132 507.598 139.779 500.266 143.148C492.717 146.73 486.23 151.505 480.806 157.471C477.556 160.663 474.105 162.243 470.455 162.208C468.094 162.186 465.846 161.413 463.713 159.889C460.3 157.493 458.613 154.254 458.651 150.171C458.678 147.377 459.558 145.129 461.292 143.426C469.106 134.474 478.512 127.471 489.51 122.417C500.291 117.576 511.694 115.212 523.717 115.325C539.175 115.47 553.202 119.47 565.797 127.325C578.177 135.177 588.063 145.585 595.457 158.548C602.635 171.509 606.152 185.725 606.007 201.197C605.859 216.882 602.29 231.139 595.298 243.967C588.306 256.795 578.763 267.021 566.667 274.643C554.356 282.264 540.579 286.002 525.335 285.859C510.306 285.718 497.24 282.372 486.136 275.82C475.032 269.269 466.207 260.161 459.66 248.495C452.896 237.042 448.835 223.68 447.476 208.41C446.882 203.032 448.536 198.427 452.437 194.596C456.121 190.977 460.647 189.193 466.014 189.244ZM525.538 264.264C540.567 264.405 552.954 260.116 562.698 251.397C572.442 242.678 578.563 231.131 581.06 216.757C581.062 216.542 581.172 216.328 581.388 216.115C581.388 216.115 581.389 216.008 581.391 215.793C581.405 214.289 580.446 213.528 578.514 213.51L475.136 212.538C472.774 212.516 471.905 213.582 472.529 215.737C474.964 230.802 480.543 242.567 489.267 251.03C497.775 259.705 509.865 264.117 525.538 264.264Z" fill="#B1A3CC"/>
<path d="M940.099 211.41H827.376C825.229 211.41 824.37 212.485 824.799 214.634C826.732 224.089 830.489 232.469 836.072 239.775C841.654 247.081 848.525 252.776 856.684 256.859C864.843 260.942 873.646 262.983 883.093 262.983C891.252 262.983 898.982 261.264 906.282 257.826C913.797 254.173 920.238 249.338 925.606 243.321C928.826 240.098 932.262 238.486 935.912 238.486C938.274 238.486 940.528 239.238 942.675 240.742C946.111 243.106 947.828 246.329 947.828 250.412C947.828 253.206 946.969 255.462 945.252 257.181C937.522 266.206 928.182 273.298 917.232 278.455C906.497 283.397 895.117 285.868 883.093 285.868C867.634 285.868 853.57 282 840.902 274.265C828.449 266.529 818.465 256.214 810.95 243.321C803.65 230.428 800 216.245 800 200.774C800 185.087 803.436 170.797 810.306 157.904C817.177 145.011 826.624 134.696 838.648 126.96C850.886 119.225 864.628 115.357 879.872 115.357C894.902 115.357 907.999 118.58 919.164 125.026C930.329 131.473 939.24 140.498 945.896 152.102C952.767 163.491 956.953 176.814 958.456 192.071C959.101 197.443 957.49 202.063 953.625 205.931C949.975 209.584 945.466 211.41 940.099 211.41ZM879.872 136.953C864.843 136.953 852.497 141.358 842.835 150.168C833.173 158.978 827.161 170.582 824.799 184.98C824.799 185.194 824.692 185.409 824.477 185.624C824.477 185.624 824.477 185.732 824.477 185.947C824.477 187.451 825.443 188.203 827.376 188.203H930.759C933.121 188.203 933.979 187.128 933.335 184.98C930.759 169.938 925.069 158.226 916.266 149.846C907.677 141.25 895.546 136.953 879.872 136.953Z" fill="#B1A3CC"/>
<path fill-rule="evenodd" clip-rule="evenodd" d="M48.9437 164.739C19.9747 150.702 0 121.027 0 86.6881C0 38.8116 38.8291 0 86.7273 0C120.33 0 149.47 19.1021 163.87 47.0352C171.566 44.8724 179.491 49.1175 187.6 53.4611C194.456 57.1336 201.443 60.8765 208.535 60.8765C215.85 60.8765 223.054 57.2306 230.117 53.6559C238.598 49.3635 246.876 45.1739 254.9 47.5227C269.211 19.3246 298.494 0 332.292 0C380.19 0 419.019 38.8116 419.019 86.6881C419.019 121.711 398.241 151.883 368.334 165.559C370.052 172.445 366.254 179.503 362.381 186.701C359.058 192.876 355.679 199.156 355.679 205.519C355.679 211.642 359.145 217.686 362.556 223.635C366.474 230.467 370.319 237.173 368.761 243.727C398.438 257.495 419.019 287.546 419.019 322.402C419.019 370.278 380.19 409.09 332.292 409.09C299.173 409.09 270.389 390.534 255.78 363.255C247.585 365.704 239.121 361.544 230.444 357.279C223.277 353.756 215.963 350.162 208.535 350.162C201.325 350.162 194.222 353.854 187.256 357.475C178.952 361.792 170.842 366.008 162.973 363.748C148.283 390.757 119.647 409.09 86.7273 409.09C38.8291 409.09 0 370.278 0 322.402C0 288.235 19.7761 258.684 48.511 244.562C46.8814 237.866 50.8224 231.009 54.8395 224.02C58.3303 217.947 61.8784 211.774 61.8784 205.519C61.8784 199.026 58.4185 192.621 55.0171 186.324C51.0448 178.97 47.1524 171.764 48.9437 164.739ZM208.952 324.294C278.809 324.294 335.438 268.662 335.438 200.037C335.438 131.412 278.809 75.78 208.952 75.78C139.096 75.78 82.4665 131.412 82.4665 200.037C82.4665 268.662 139.096 324.294 208.952 324.294Z" fill="url(#paint0_radial_3_120)"/>
<path d="M256.851 244.407L256.761 244.497L256.676 244.592C251.232 250.695 244.691 255.614 237.013 259.351C229.664 262.808 221.896 264.536 213.66 264.536C204.028 264.536 195.118 262.461 186.866 258.331C178.583 254.186 171.62 248.418 165.943 240.988C160.656 234.069 156.967 226.184 154.892 217.279H275.844C282.841 217.279 288.92 214.848 293.782 209.982C298.95 204.81 301.196 198.423 300.343 191.195C298.646 174.025 293.914 158.858 286.046 145.802C278.409 132.502 268.138 122.088 255.258 114.651C242.289 107.163 227.2 103.5 210.147 103.5C192.714 103.5 176.882 107.936 162.774 116.854L162.758 116.864L162.743 116.873C148.966 125.737 138.138 137.569 130.29 152.296C122.423 167.059 118.52 183.382 118.52 201.176C118.52 218.794 122.685 235.034 131.049 249.805L131.062 249.83L131.077 249.854C139.637 264.541 151.043 276.331 165.263 285.165L165.277 285.174L165.292 285.183C179.847 294.071 196.005 298.5 213.66 298.5C227.414 298.5 240.471 295.668 252.782 290.001L252.8 289.992L252.817 289.984C265.278 284.115 275.946 276.034 284.779 265.755C287.532 262.927 288.775 259.307 288.775 255.323C288.775 249.357 286.147 244.475 281.22 241.078C278.213 238.975 274.871 237.814 271.277 237.814C265.82 237.814 260.987 240.268 256.851 244.407ZM154.45 215.178C154.451 215.179 154.453 215.193 154.453 215.22C154.45 215.191 154.45 215.177 154.45 215.178ZM152.723 217.284C152.704 217.288 152.694 217.288 152.693 217.288C152.693 217.288 152.702 217.286 152.723 217.284ZM263.716 182.963H154.812C157.425 168.944 163.449 157.804 172.777 149.299C182.364 140.557 194.694 136.058 210.147 136.058C226.412 136.058 238.364 140.497 246.663 148.803L246.703 148.842L246.743 148.881C255.156 156.89 260.899 168.129 263.716 182.963ZM152.584 182.945C152.585 182.944 152.595 182.946 152.614 182.95C152.593 182.947 152.584 182.945 152.584 182.945Z" stroke="#CFC3E6" stroke-width="9"/>
<path d="M256.851 244.407L256.761 244.497L256.676 244.592C251.232 250.695 244.691 255.614 237.013 259.351C229.664 262.808 221.896 264.536 213.66 264.536C204.028 264.536 195.118 262.461 186.866 258.331C178.583 254.186 171.62 248.418 165.943 240.988C160.656 234.069 156.967 226.184 154.892 217.279H275.844C282.841 217.279 288.92 214.848 293.782 209.982C298.95 204.81 301.196 198.423 300.343 191.195C298.646 174.025 293.914 158.858 286.046 145.802C278.409 132.502 268.138 122.088 255.258 114.651C242.289 107.163 227.2 103.5 210.147 103.5C192.714 103.5 176.882 107.936 162.774 116.854L162.758 116.864L162.743 116.873C148.966 125.737 138.138 137.569 130.29 152.296C122.423 167.059 118.52 183.382 118.52 201.176C118.52 218.794 122.685 235.034 131.049 249.805L131.062 249.83L131.077 249.854C139.637 264.541 151.043 276.331 165.263 285.165L165.277 285.174L165.292 285.183C179.847 294.071 196.005 298.5 213.66 298.5C227.414 298.5 240.471 295.668 252.782 290.001L252.8 289.992L252.817 289.984C265.278 284.115 275.946 276.034 284.779 265.755C287.532 262.927 288.775 259.307 288.775 255.323C288.775 249.357 286.147 244.475 281.22 241.078C278.213 238.975 274.871 237.814 271.277 237.814C265.82 237.814 260.987 240.268 256.851 244.407ZM154.45 215.178C154.451 215.179 154.453 215.193 154.453 215.22C154.45 215.191 154.45 215.177 154.45 215.178ZM152.723 217.284C152.704 217.288 152.694 217.288 152.693 217.288C152.693 217.288 152.702 217.286 152.723 217.284ZM263.716 182.963H154.812C157.425 168.944 163.449 157.804 172.777 149.299C182.364 140.557 194.694 136.058 210.147 136.058C226.412 136.058 238.364 140.497 246.663 148.803L246.703 148.842L246.743 148.881C255.156 156.89 260.899 168.129 263.716 182.963ZM152.584 182.945C152.585 182.944 152.595 182.946 152.614 182.95C152.593 182.947 152.584 182.945 152.584 182.945Z" stroke="#CFC3E6" stroke-width="9"/>
<defs>
<radialGradient id="paint0_radial_3_120" cx="0" cy="0" r="1" gradientUnits="userSpaceOnUse" gradientTransform="translate(217.817 197.408) rotate(44.313) scale(193.265 193.21)">
<stop stop-color="#EAE6F2"/>
<stop offset="1" stop-color="#C7B8E6"/>
</radialGradient>
</defs>
</svg>
