<svg width="1424" height="399" viewBox="0 0 1424 399" fill="none" xmlns="http://www.w3.org/2000/svg">
<path d="M691.182 274.325C676.679 274.325 663.637 270.946 652.055 264.188C640.573 257.43 631.509 248.251 624.862 236.651C618.215 224.951 614.892 211.788 614.892 197.162C614.892 182.436 618.215 169.273 624.862 157.673C631.509 146.074 640.573 136.895 652.055 130.137C663.637 123.379 676.729 120 691.333 120C703.015 120 713.741 122.219 723.51 126.657C733.279 130.994 741.588 137.046 748.437 144.813L749.645 123.026H771.55V270.391C771.55 287.336 768.227 301.962 761.58 314.268C754.933 326.674 745.466 336.206 733.179 342.863C720.892 349.621 706.288 353 689.369 353C665.399 353 644.552 345.032 626.826 329.095L637.703 309.123C651.501 323.446 668.37 330.608 688.311 330.608C700.296 330.608 710.619 328.086 719.28 323.043C728.042 318.1 734.79 311.09 739.524 302.012C744.358 292.934 746.775 282.192 746.775 269.786V251.176C739.926 258.337 731.718 263.986 722.151 268.121C712.684 272.257 702.361 274.325 691.182 274.325ZM693.297 252.386C703.166 252.386 712.13 250.167 720.187 245.729C728.244 241.19 734.689 235.037 739.524 227.271C744.358 219.403 746.775 210.527 746.775 200.642V193.683C746.775 183.697 744.358 174.821 739.524 167.054C734.689 159.287 728.244 153.185 720.187 148.747C712.13 144.208 703.166 141.938 693.297 141.938C683.125 141.938 674.01 144.359 665.953 149.201C657.896 154.042 651.501 160.649 646.767 169.021C642.135 177.292 639.818 186.672 639.818 197.162C639.818 207.652 642.135 217.083 646.767 225.455C651.501 233.827 657.896 240.434 665.953 245.275C674.01 250.016 683.125 252.386 693.297 252.386Z" fill="#624D8C"/>
<path d="M1103.63 274.325H1078.85V189.9C1078.85 175.577 1074.78 164.129 1066.62 155.555C1058.46 146.982 1047.63 142.695 1034.14 142.695C1020.14 142.695 1008.76 147.335 999.997 156.614C991.335 165.793 987.005 177.897 987.005 192.926V274.325H962.229V123.026H983.832L984.739 147.536C990.278 138.66 997.579 131.852 1006.64 127.111C1015.71 122.37 1026.38 120 1038.67 120C1058.71 120 1074.52 126.052 1086.11 138.156C1097.79 150.26 1103.63 166.852 1103.63 187.933V274.325Z" fill="#624D8C"/>
<path d="M1257.51 252.538C1250.16 260.506 1241.44 266.659 1231.37 270.996C1221.3 275.233 1210.48 277.351 1198.89 277.351C1183.89 277.351 1170.39 273.921 1158.41 267.062C1146.52 260.204 1137.11 250.823 1130.16 238.921C1123.31 227.019 1119.88 213.604 1119.88 198.675C1119.88 183.646 1123.31 170.231 1130.16 158.43C1137.11 146.528 1146.52 137.147 1158.41 130.288C1170.39 123.429 1183.89 120 1198.89 120C1210.38 120 1221.15 122.118 1231.22 126.355C1241.29 130.591 1250.01 136.693 1257.36 144.662L1242.55 160.245C1237.22 154.597 1230.82 150.26 1223.37 147.234C1216.01 144.208 1208.21 142.695 1199.95 142.695C1189.38 142.695 1179.96 145.116 1171.7 149.957C1163.54 154.698 1157.1 161.254 1152.36 169.626C1147.73 177.998 1145.42 187.631 1145.42 198.524C1145.42 209.418 1147.73 219.101 1152.36 227.573C1157.1 236.046 1163.54 242.703 1171.7 247.545C1179.96 252.286 1189.38 254.656 1199.95 254.656C1208.21 254.656 1216.07 253.143 1223.52 250.117C1230.97 246.99 1237.32 242.653 1242.55 237.105L1257.51 252.538Z" fill="#624D8C"/>
<path d="M1329.36 349.974H1302.32L1334.04 273.114L1261.83 123.026H1289.17L1345.97 244.519L1396.13 123.026H1423.02L1329.36 349.974Z" fill="#624D8C"/>
<path d="M456.014 188.244L568.732 189.303C570.879 189.323 571.748 188.257 571.339 186.104C569.495 176.631 565.817 168.216 560.303 160.858C554.79 153.499 547.973 147.741 539.853 143.581C531.732 139.422 522.949 137.298 513.502 137.209C505.343 137.132 497.598 138.779 490.266 142.148C482.717 145.73 476.23 150.505 470.806 156.471C467.556 159.664 464.105 161.243 460.455 161.209C458.094 161.186 455.846 160.413 453.713 158.889C450.3 156.493 448.613 153.254 448.651 149.171C448.678 146.378 449.558 144.129 451.292 142.427C459.106 133.474 468.512 126.471 479.51 121.417C490.291 116.576 501.694 114.212 513.717 114.325C529.175 114.47 543.202 118.47 555.797 126.325C568.177 134.177 578.063 144.585 585.457 157.548C592.635 170.509 596.152 184.726 596.007 200.197C595.859 215.883 592.29 230.14 585.298 242.968C578.306 255.796 568.763 266.021 556.667 273.643C544.356 281.264 530.579 285.003 515.335 284.859C500.306 284.718 487.24 281.372 476.136 274.821C465.032 268.269 456.207 259.161 449.66 247.495C442.896 236.042 438.835 222.68 437.476 207.41C436.882 202.032 438.536 197.427 442.437 193.596C446.121 189.977 450.647 188.193 456.014 188.244ZM515.538 263.264C530.567 263.405 542.954 259.117 552.698 250.397C562.442 241.678 568.563 230.131 571.06 215.757C571.062 215.542 571.172 215.328 571.388 215.115C571.388 215.115 571.389 215.008 571.391 214.793C571.405 213.289 570.446 212.528 568.514 212.51L465.136 211.538C462.774 211.516 461.905 212.582 462.529 214.737C464.964 229.802 470.543 241.567 479.267 250.03C487.775 258.705 499.865 263.117 515.538 263.264Z" fill="#624D8C"/>
<path d="M929.098 215.411H816.376C814.228 215.411 813.37 216.485 813.799 218.634C815.731 228.089 819.489 236.469 825.071 243.775C830.654 251.082 837.525 256.776 845.684 260.859C853.843 264.942 862.646 266.983 872.093 266.983C880.252 266.983 887.981 265.264 895.282 261.826C902.796 258.173 909.238 253.338 914.606 247.321C917.826 244.098 921.262 242.486 924.912 242.486C927.273 242.486 929.528 243.238 931.675 244.742C935.11 247.106 936.828 250.329 936.828 254.412C936.828 257.206 935.969 259.462 934.252 261.181C926.522 270.206 917.182 277.298 906.232 282.455C895.496 287.397 884.117 289.868 872.093 289.868C856.634 289.868 842.57 286 829.902 278.265C817.449 270.529 807.465 260.214 799.95 247.321C792.65 234.428 789 220.245 789 204.774C789 189.087 792.435 174.797 799.306 161.904C806.177 149.011 815.624 138.696 827.648 130.961C839.886 123.225 853.628 119.357 868.872 119.357C883.902 119.357 896.999 122.58 908.164 129.027C919.329 135.473 928.24 144.498 934.896 156.102C941.766 167.491 945.953 180.814 947.456 196.071C948.1 201.443 946.49 206.063 942.625 209.931C938.975 213.584 934.466 215.411 929.098 215.411ZM868.872 140.953C853.843 140.953 841.497 145.358 831.835 154.168C822.173 162.978 816.161 174.582 813.799 188.98C813.799 189.195 813.692 189.409 813.477 189.624C813.477 189.624 813.477 189.732 813.477 189.947C813.477 191.451 814.443 192.203 816.376 192.203H919.759C922.12 192.203 922.979 191.128 922.335 188.98C919.759 173.938 914.069 162.226 905.266 153.846C896.677 145.25 884.546 140.953 868.872 140.953Z" fill="#624D8C"/>
<path fill-rule="evenodd" clip-rule="evenodd" d="M47.7929 160.676C19.5166 146.985 0.0195312 118.042 0.0195312 84.55C0.0195312 37.8543 37.9202 0 84.673 0C117.473 0 145.915 18.631 159.971 45.8751C167.484 43.7657 175.219 47.906 183.134 52.1425C189.826 55.7244 196.646 59.375 203.568 59.375C210.709 59.375 217.74 55.819 224.634 52.3325C232.912 48.146 240.992 44.0597 248.825 46.3505C262.794 18.848 291.376 0 324.366 0C371.119 0 409.02 37.8543 409.02 84.55C409.02 118.709 388.738 148.137 359.546 161.476C361.223 168.192 357.516 175.075 353.735 182.096C350.492 188.119 347.194 194.243 347.194 200.45C347.194 206.421 350.577 212.317 353.907 218.119C357.73 224.782 361.484 231.323 359.962 237.716C388.931 251.144 409.02 280.454 409.02 314.45C409.02 361.146 371.119 399 324.366 399C292.038 399 263.943 380.901 249.684 354.296C241.684 356.684 233.423 352.627 224.954 348.467C217.957 345.031 210.819 341.525 203.568 341.525C196.53 341.525 189.598 345.126 182.798 348.658C174.693 352.868 166.776 356.98 159.096 354.776C144.757 381.119 116.805 399 84.673 399C37.9202 399 0.0195312 361.146 0.0195312 314.45C0.0195312 281.125 19.3227 252.304 47.3705 238.53C45.7799 231.999 49.6267 225.311 53.5477 218.495C56.955 212.571 60.4184 206.55 60.4184 200.45C60.4184 194.117 57.0411 187.87 53.7211 181.728C49.8438 174.556 46.0445 167.528 47.7929 160.676ZM204.52 318C272.174 318 327.02 263.155 327.02 195.5C327.02 127.845 272.174 73 204.52 73C136.865 73 82.0195 127.845 82.0195 195.5C82.0195 263.155 136.865 318 204.52 318Z" fill="url(#paint0_radial_5_4)"/>
<path d="M250.302 237.159L250.213 237.249L250.128 237.344C244.92 243.199 238.663 247.919 231.317 251.504C224.291 254.819 216.866 256.475 208.993 256.475C199.78 256.475 191.26 254.485 183.368 250.524C175.446 246.548 168.787 241.016 163.355 233.885C158.338 227.3 154.824 219.801 152.828 211.336H268.66C275.424 211.336 281.306 208.977 286.006 204.259C291.002 199.245 293.173 193.049 292.349 186.048C290.719 169.506 286.173 154.887 278.61 142.297C271.267 129.475 261.391 119.43 249.003 112.257C236.526 105.031 222.013 101.5 205.622 101.5C188.859 101.5 173.632 105.779 160.063 114.381L160.047 114.391L160.032 114.4C146.786 122.948 136.376 134.357 128.833 148.554C121.27 162.787 117.52 178.522 117.52 195.669C117.52 212.65 121.523 228.306 129.562 242.547L129.576 242.571L129.59 242.596C137.818 256.753 148.782 268.121 162.452 276.638L162.467 276.647L162.482 276.656C176.478 285.228 192.017 289.5 208.993 289.5C222.218 289.5 234.774 286.769 246.612 281.303L246.63 281.295L246.648 281.286C258.626 275.628 268.882 267.837 277.373 257.927C280.048 255.169 281.251 251.644 281.251 247.779C281.251 241.987 278.704 237.237 273.93 233.935C271.016 231.892 267.772 230.759 264.278 230.759C258.978 230.759 254.295 233.151 250.302 237.159ZM152.36 209.134C152.361 209.134 152.362 209.149 152.363 209.175C152.36 209.147 152.359 209.133 152.36 209.134ZM150.544 211.339C150.526 211.342 150.516 211.343 150.516 211.343C150.516 211.342 150.525 211.341 150.544 211.339ZM256.806 177.973H152.742C155.264 164.603 161.016 153.982 169.891 145.865C179.052 137.487 190.836 133.171 205.622 133.171C221.191 133.171 232.606 137.431 240.526 145.382L240.566 145.422L240.607 145.461C248.609 153.102 254.094 163.819 256.806 177.973ZM150.418 177.957C150.418 177.957 150.43 177.958 150.451 177.963C150.428 177.96 150.418 177.958 150.418 177.957Z" stroke="#624D8C" stroke-width="9"/>
<path d="M250.302 237.159L250.213 237.249L250.128 237.344C244.92 243.199 238.663 247.919 231.317 251.504C224.291 254.819 216.866 256.475 208.993 256.475C199.78 256.475 191.26 254.485 183.368 250.524C175.446 246.548 168.787 241.016 163.355 233.885C158.338 227.3 154.824 219.801 152.828 211.336H268.66C275.424 211.336 281.306 208.977 286.006 204.259C291.002 199.245 293.173 193.049 292.349 186.048C290.719 169.506 286.173 154.887 278.61 142.297C271.267 129.475 261.391 119.43 249.003 112.257C236.526 105.031 222.013 101.5 205.622 101.5C188.859 101.5 173.632 105.779 160.063 114.381L160.047 114.391L160.032 114.4C146.786 122.948 136.376 134.357 128.833 148.554C121.27 162.787 117.52 178.522 117.52 195.669C117.52 212.65 121.523 228.306 129.562 242.547L129.576 242.571L129.59 242.596C137.818 256.753 148.782 268.121 162.452 276.638L162.467 276.647L162.482 276.656C176.478 285.228 192.017 289.5 208.993 289.5C222.218 289.5 234.774 286.769 246.612 281.303L246.63 281.295L246.648 281.286C258.626 275.628 268.882 267.837 277.373 257.927C280.048 255.169 281.251 251.644 281.251 247.779C281.251 241.987 278.704 237.237 273.93 233.935C271.016 231.892 267.772 230.759 264.278 230.759C258.978 230.759 254.295 233.151 250.302 237.159ZM152.36 209.134C152.361 209.134 152.362 209.149 152.363 209.175C152.36 209.147 152.359 209.133 152.36 209.134ZM150.544 211.339C150.526 211.342 150.516 211.343 150.516 211.343C150.516 211.342 150.525 211.341 150.544 211.339ZM256.806 177.973H152.742C155.264 164.603 161.016 153.982 169.891 145.865C179.052 137.487 190.836 133.171 205.622 133.171C221.191 133.171 232.606 137.431 240.526 145.382L240.566 145.422L240.607 145.461C248.609 153.102 254.094 163.819 256.806 177.973ZM150.418 177.957C150.418 177.957 150.43 177.958 150.451 177.963C150.428 177.96 150.418 177.958 150.418 177.957Z" stroke="#624D8C" stroke-width="9"/>
<defs>
<radialGradient id="paint0_radial_5_4" cx="0" cy="0" r="1" gradientUnits="userSpaceOnUse" gradientTransform="translate(212.628 192.539) rotate(44.2909) scale(188.573 188.515)">
<stop stop-color="#9070B9"/>
<stop offset="1" stop-color="#392059"/>
</radialGradient>
</defs>
</svg>
